<svg xmlns="http://www.w3.org/2000/svg" width="1200" height="675" viewBox="0 0 1200 675">
  <defs>
    <linearGradient id="g" x1="0%" y1="0%" x2="100%" y2="100%" gradientTransform="rotate(333)">
      <stop offset="0%" stop-color="#0A2342"/>
      <stop offset="100%" stop-color="#1B5E6B"/>
    </linearGradient>
  </defs>
  <rect width="1200" height="675" fill="url(#g)"/>
  <rect x="360" y="0" width="2" height="675" fill="white" opacity="0.04" transform="skewX(-20)"/><rect x="540" y="0" width="2" height="675" fill="white" opacity="0.04" transform="skewX(-20)"/><rect x="720" y="0" width="2" height="675" fill="white" opacity="0.04" transform="skewX(-20)"/><rect x="900" y="0" width="2" height="675" fill="white" opacity="0.04" transform="skewX(-20)"/><rect x="1080" y="0" width="2" height="675" fill="white" opacity="0.04" transform="skewX(-20)"/>
  <rect x="0" y="615" width="1200" height="6" fill="#FFC72C"/>
  <g transform="translate(540,255) scale(10)"><path d="M12 3v9M9 6h6M4 14l1.5 6h13L20 14M4 14h16M4 14l4-3M20 14l-4-3" fill="none" stroke="white" stroke-width="1.3" stroke-linejoin="round" stroke-linecap="round"/></g>
</svg>